<svg width="146" height="250" viewBox="0 0 146 250" fill="none" xmlns="http://www.w3.org/2000/svg" viewBox="0 0 160 250">
<path d="M20.8172 0.000313492C13.8413 0.00668627 6.87814 0.595139 0 1.75957C29.0676 6.71881 55.4447 21.8099 74.4625 44.3618C93.4804 66.9137 103.913 95.472 103.913 124.982C103.913 154.492 93.4804 183.05 74.4625 205.602C55.4447 228.154 29.0676 243.245 0 248.204C17.0579 251.129 34.5372 250.475 51.3292 246.283C68.1212 242.091 83.8594 234.452 97.5456 223.851C111.232 213.25 122.567 199.918 130.833 184.701C139.099 169.485 144.115 152.715 145.562 135.455C147.01 118.196 144.858 100.824 139.242 84.4409C133.627 68.058 124.67 53.0218 112.941 40.2859C101.213 27.55 86.967 17.3925 71.1083 10.4575C55.2495 3.52254 38.1237 -0.0384745 20.8172 0.000313492Z" fill="url(#paint0_linear_577_26260)"/>
<defs>
<linearGradient id="paint0_linear_577_26260" x1="140.854" y1="124.982" x2="12.0925" y2="124.982" gradientUnits="userSpaceOnUse">
<stop stop-color="#DBF87A"/>
<stop offset="1" stop-color="#DBF87A" stop-opacity="0"/>
</linearGradient>
</defs>
</svg>
