<svg width="20" height="20" viewBox="0 0 20 20" fill="none" xmlns="http://www.w3.org/2000/svg">
<path d="M10 18C5.58172 18 2 14.4183 2 10C2 5.58172 5.58172 2 10 2C14.4183 2 18 5.58172 18 10C18 11.2594 17.709 12.4509 17.1905 13.5108C17.1403 13.6135 17.1237 13.7297 17.1466 13.8418L17.8504 17.2712C17.9218 17.6191 17.6178 17.9285 17.2687 17.8632L13.7201 17.1992C13.6133 17.1792 13.5032 17.195 13.4049 17.2413C12.3718 17.728 11.2177 18 10 18Z" fill="#585858"/>
<circle cx="6" cy="10" r="1" fill="#121212"/>
<circle cx="10" cy="10" r="1" fill="#121212"/>
<circle cx="14" cy="10" r="1" fill="#121212"/>
</svg>
