<svg width="20" height="20" viewBox="0 0 20 20" fill="none" xmlns="http://www.w3.org/2000/svg">
<path d="M9.24514 13.5838L16.5811 6.24781C16.8254 5.99857 16.9623 5.66348 16.9623 5.31448C16.9623 4.96547 16.8254 4.63038 16.5811 4.38114C16.3319 4.13684 15.9968 4 15.6478 4C15.2988 4 14.9637 4.13684 14.7145 4.38114L8.11448 10.9811L5.24781 8.11448C4.99857 7.87017 4.66348 7.73333 4.31448 7.73333C3.96547 7.73333 3.63038 7.87017 3.38114 8.11448C3.13684 8.36371 3 8.69881 3 9.04781C3 9.39681 3.13684 9.7319 3.38114 9.98114L6.98381 13.5838C7.28381 13.8834 7.69047 14.0517 8.11448 14.0517C8.53848 14.0517 8.94514 13.8834 9.24514 13.5838Z" fill="#DBF87A"/>
</svg>
