<svg width="20" height="20" viewBox="0 0 20 20" fill="none" xmlns="http://www.w3.org/2000/svg">
<path fill-rule="evenodd" clip-rule="evenodd" d="M9.33334 2C8.73077 2 8.24228 2.48848 8.24228 3.09105V9.72435C8.17957 9.74383 8.10401 9.75125 8.01576 9.73654L6.46085 3.95437C6.3044 3.37261 5.70574 3.02698 5.1237 3.18237C4.54166 3.33777 4.19665 3.93535 4.35309 4.51711L6.02613 10.7386L3.81491 7.02154C3.53977 6.55903 2.9411 6.40596 2.47773 6.67964C2.01436 6.95331 1.86177 7.5501 2.13691 8.0126L3.91081 10.9945C4.09846 11.4049 4.26662 11.9329 4.28607 12.5728C4.33971 14.3377 5.01971 16.4934 6.07995 17.2557C7.11172 17.9975 7.97456 17.9968 8.62742 17.9962C8.64544 17.9962 8.6633 17.9962 8.68099 17.9962C8.72778 17.9962 8.78086 17.9969 8.83974 17.9978C9.65349 18.0095 11.5752 18.0373 13.2919 16.2796C14.2676 15.2806 15.2244 14.2155 15.966 13.3898C16.6237 12.6576 17.1123 12.1137 17.2948 11.9713C17.6833 11.6684 18.4602 10.6755 17.6326 10.036C16.805 9.39644 15.4876 10.3725 14.9471 11.0625C14.888 11.1381 14.8237 11.2221 14.7557 11.3111C14.2025 12.0346 13.3996 13.0848 13.0386 12.5603C12.6332 11.9713 12.7195 9.86746 12.9837 8.96222C12.9923 8.93273 12.9986 8.90676 13.0028 8.88413L14.3025 4.37279C14.4693 3.79393 14.135 3.19037 13.5558 3.0247C12.9766 2.85903 12.3719 3.19399 12.2051 3.77285L10.4244 9.95376V3.09105C10.4244 2.48848 9.93591 2 9.33334 2Z" fill="#DBF87A"/>
<path d="M11.5032 12.5878C11.4022 12.6885 8.59749 12.9907 8.49634 16.0625" stroke="#121212" stroke-linecap="round"/>
</svg>
