<svg width="24" height="24" viewBox="0 0 24 24" fill="none" xmlns="http://www.w3.org/2000/svg">
<path d="M5.41776 6.33701C3.616 8.03614 3.53157 10.7415 5.16444 12.5349L11.3129 18.3501C11.6984 18.7147 12.3016 18.7147 12.6871 18.3501L18.8356 12.5349C20.4684 10.7415 20.384 8.03614 18.5822 6.33701C16.7821 4.63941 13.9169 4.55839 12.0151 6.09396C12.0122 6.09633 12.0079 6.09619 12.0052 6.0936C12.0023 6.09085 11.9977 6.09085 11.9948 6.0936C11.9921 6.09619 11.9878 6.09633 11.9849 6.09396C10.0831 4.55839 7.21788 4.63941 5.41776 6.33701Z" fill="#DBF87A"/>
<path d="M17.6002 9.66671C17.6002 8.37804 16.5257 7.33337 15.2002 7.33337" stroke="#121212" stroke-width="1.5" stroke-linecap="round" stroke-linejoin="round"/>
</svg>
