<svg width="20" height="20" viewBox="0 0 20 20" fill="none" xmlns="http://www.w3.org/2000/svg">
<path fill-rule="evenodd" clip-rule="evenodd" d="M11.0953 3.03412C11.2491 2.96878 11.4279 2.99888 11.5504 3.11075L17.8662 8.87544C17.9516 8.95331 18 9.06233 18 9.17646C18 9.29059 17.9516 9.39961 17.8662 9.47748L11.5504 15.2422C11.4279 15.354 11.2491 15.3841 11.0953 15.3188C10.9416 15.2534 10.8421 15.1051 10.8421 14.9411V11.2353H8.96598C7.1528 11.2353 5.47865 12.1854 4.57906 13.7249L2.78663 16.7925C2.69191 16.9546 2.49751 17.0341 2.31298 16.9862C2.12846 16.9382 2 16.7749 2 16.5882V12.0588C2 8.87505 4.63916 6.29412 7.89474 6.29412H10.8421V3.41177C10.8421 3.24781 10.9416 3.09947 11.0953 3.03412Z" fill="#585858"/>
</svg>
